<svg width="240" height="13" viewBox="0 0 240 13" fill="none" xmlns="http://www.w3.org/2000/svg">
<path d="M4.956 8.464C4.092 8.464 3.44 8.212 3 7.708C2.568 7.204 2.352 6.532 2.352 5.692C2.352 5.148 2.444 4.672 2.628 4.264C2.82 3.856 3.104 3.54 3.48 3.316C3.864 3.092 4.336 2.98 4.896 2.98C5.256 2.98 5.588 3.02 5.892 3.1C6.196 3.18 6.492 3.292 6.78 3.436L6.24 4.636C6.04 4.524 5.84 4.444 5.64 4.396C5.448 4.34 5.236 4.312 5.004 4.312C4.692 4.312 4.444 4.432 4.26 4.672C4.084 4.912 3.996 5.26 3.996 5.716C3.996 6.044 4.032 6.316 4.104 6.532C4.184 6.74 4.3 6.892 4.452 6.988C4.612 7.084 4.808 7.132 5.04 7.132C5.296 7.132 5.552 7.1 5.808 7.036C6.064 6.972 6.312 6.872 6.552 6.736V8.092C6.304 8.22 6.052 8.316 5.796 8.38C5.548 8.436 5.268 8.464 4.956 8.464ZM4.944 10.12C4.304 10.12 3.716 10.012 3.18 9.796C2.644 9.58 2.176 9.276 1.776 8.884C1.384 8.484 1.08 8.016 0.864 7.48C0.648 6.944 0.54 6.356 0.54 5.716C0.54 5.076 0.648 4.488 0.864 3.952C1.08 3.416 1.384 2.952 1.776 2.56C2.176 2.16 2.644 1.852 3.18 1.636C3.716 1.42 4.304 1.312 4.944 1.312C5.584 1.312 6.172 1.42 6.708 1.636C7.244 1.852 7.708 2.16 8.1 2.56C8.5 2.952 8.808 3.416 9.024 3.952C9.24 4.488 9.348 5.076 9.348 5.716C9.348 6.356 9.24 6.944 9.024 7.48C8.808 8.016 8.5 8.484 8.1 8.884C7.708 9.276 7.244 9.58 6.708 9.796C6.172 10.012 5.584 10.12 4.944 10.12ZM4.944 9.16C5.432 9.16 5.88 9.076 6.288 8.908C6.696 8.74 7.048 8.504 7.344 8.2C7.64 7.896 7.868 7.532 8.028 7.108C8.188 6.684 8.268 6.22 8.268 5.716C8.268 5.212 8.188 4.748 8.028 4.324C7.868 3.9 7.64 3.536 7.344 3.232C7.048 2.928 6.696 2.692 6.288 2.524C5.88 2.356 5.432 2.272 4.944 2.272C4.448 2.272 3.996 2.356 3.588 2.524C3.18 2.692 2.824 2.928 2.52 3.232C2.224 3.536 1.996 3.9 1.836 4.324C1.676 4.748 1.596 5.212 1.596 5.716C1.596 6.22 1.676 6.684 1.836 7.108C1.996 7.532 2.224 7.896 2.52 8.2C2.824 8.504 3.18 8.74 3.588 8.908C3.996 9.076 4.448 9.16 4.944 9.16ZM19.5838 10H13.3678V8.476L15.4558 6.364C15.8878 5.908 16.2238 5.544 16.4638 5.272C16.7118 5 16.8838 4.768 16.9798 4.576C17.0758 4.384 17.1238 4.184 17.1238 3.976C17.1238 3.72 17.0398 3.536 16.8718 3.424C16.7118 3.312 16.5198 3.256 16.2958 3.256C16.0238 3.256 15.7518 3.332 15.4798 3.484C15.2078 3.636 14.8958 3.864 14.5438 4.168L13.2718 2.68C13.5278 2.448 13.7998 2.228 14.0878 2.02C14.3838 1.812 14.7278 1.644 15.1198 1.516C15.5118 1.38 15.9918 1.312 16.5598 1.312C17.1438 1.312 17.6478 1.416 18.0718 1.624C18.4958 1.824 18.8238 2.1 19.0558 2.452C19.2958 2.804 19.4158 3.204 19.4158 3.652C19.4158 4.02 19.3638 4.36 19.2598 4.672C19.1638 4.976 19.0118 5.272 18.8038 5.56C18.6038 5.848 18.3478 6.148 18.0358 6.46C17.7318 6.764 17.3758 7.1 16.9678 7.468L16.3438 8.032V8.092H19.5838V10ZM26.6511 5.728C26.6511 6.416 26.5951 7.032 26.4831 7.576C26.3791 8.112 26.2031 8.572 25.9551 8.956C25.7151 9.332 25.3991 9.62 25.0071 9.82C24.6151 10.02 24.1311 10.12 23.5551 10.12C22.8431 10.12 22.2551 9.944 21.7911 9.592C21.3351 9.24 20.9991 8.736 20.7831 8.08C20.5671 7.424 20.4591 6.64 20.4591 5.728C20.4591 4.8 20.5551 4.008 20.7471 3.352C20.9471 2.696 21.2751 2.192 21.7311 1.84C22.1871 1.488 22.7951 1.312 23.5551 1.312C24.2671 1.312 24.8511 1.488 25.3071 1.84C25.7631 2.184 26.0991 2.688 26.3151 3.352C26.5391 4.008 26.6511 4.8 26.6511 5.728ZM22.7631 5.728C22.7631 6.288 22.7831 6.756 22.8231 7.132C22.8711 7.508 22.9511 7.792 23.0631 7.984C23.1751 8.176 23.3391 8.272 23.5551 8.272C23.7711 8.272 23.9351 8.18 24.0471 7.996C24.1591 7.804 24.2351 7.52 24.2751 7.144C24.3231 6.76 24.3471 6.288 24.3471 5.728C24.3471 5.16 24.3231 4.688 24.2751 4.312C24.2351 3.928 24.1591 3.64 24.0471 3.448C23.9351 3.256 23.7711 3.16 23.5551 3.16C23.3391 3.16 23.1751 3.256 23.0631 3.448C22.9511 3.64 22.8711 3.928 22.8231 4.312C22.7831 4.688 22.7631 5.16 22.7631 5.728ZM33.6463 10H27.4303V8.476L29.5183 6.364C29.9503 5.908 30.2863 5.544 30.5263 5.272C30.7743 5 30.9463 4.768 31.0423 4.576C31.1383 4.384 31.1863 4.184 31.1863 3.976C31.1863 3.72 31.1023 3.536 30.9343 3.424C30.7743 3.312 30.5823 3.256 30.3583 3.256C30.0863 3.256 29.8143 3.332 29.5423 3.484C29.2703 3.636 28.9583 3.864 28.6063 4.168L27.3343 2.68C27.5903 2.448 27.8623 2.228 28.1503 2.02C28.4463 1.812 28.7903 1.644 29.1823 1.516C29.5743 1.38 30.0543 1.312 30.6223 1.312C31.2063 1.312 31.7103 1.416 32.1343 1.624C32.5583 1.824 32.8863 2.1 33.1183 2.452C33.3583 2.804 33.4783 3.204 33.4783 3.652C33.4783 4.02 33.4263 4.36 33.3223 4.672C33.2263 4.976 33.0743 5.272 32.8663 5.56C32.6663 5.848 32.4103 6.148 32.0983 6.46C31.7943 6.764 31.4383 7.1 31.0303 7.468L30.4063 8.032V8.092H33.6463V10ZM40.3896 3.292C40.3896 3.7 40.3016 4.052 40.1256 4.348C39.9496 4.636 39.7176 4.876 39.4296 5.068C39.1496 5.252 38.8376 5.392 38.4936 5.488V5.524C39.1816 5.604 39.7096 5.812 40.0776 6.148C40.4536 6.476 40.6416 6.944 40.6416 7.552C40.6416 8.016 40.5136 8.444 40.2576 8.836C40.0096 9.228 39.6216 9.54 39.0936 9.772C38.5736 10.004 37.8976 10.12 37.0656 10.12C36.5136 10.12 36.0416 10.08 35.6496 10C35.2576 9.912 34.8776 9.796 34.5096 9.652V7.732C34.8856 7.924 35.2696 8.068 35.6616 8.164C36.0536 8.252 36.4096 8.296 36.7296 8.296C37.2976 8.296 37.6816 8.216 37.8816 8.056C38.0896 7.896 38.1936 7.68 38.1936 7.408C38.1936 7.216 38.1416 7.052 38.0376 6.916C37.9416 6.772 37.7616 6.664 37.4976 6.592C37.2416 6.52 36.8656 6.484 36.3696 6.484H35.8416V4.744H36.3816C36.8216 4.744 37.1696 4.708 37.4256 4.636C37.6816 4.556 37.8656 4.448 37.9776 4.312C38.0896 4.176 38.1456 4.02 38.1456 3.844C38.1456 3.612 38.0576 3.444 37.8816 3.34C37.7056 3.228 37.4736 3.172 37.1856 3.172C36.9296 3.172 36.6856 3.208 36.4536 3.28C36.2296 3.352 36.0336 3.432 35.8656 3.52C35.6976 3.6 35.5696 3.668 35.4816 3.724L34.5216 2.176C34.7616 2.016 35.0176 1.872 35.2896 1.744C35.5696 1.608 35.8896 1.504 36.2496 1.432C36.6176 1.352 37.0496 1.312 37.5456 1.312C38.4256 1.312 39.1176 1.488 39.6216 1.84C40.1336 2.192 40.3896 2.676 40.3896 3.292ZM50.778 7.396C50.778 7.86 50.658 8.3 50.418 8.716C50.186 9.132 49.822 9.472 49.326 9.736C48.838 9.992 48.202 10.12 47.418 10.12C47.026 10.12 46.682 10.1 46.386 10.06C46.098 10.028 45.826 9.972 45.57 9.892C45.314 9.812 45.05 9.708 44.778 9.58V7.516C45.242 7.748 45.71 7.928 46.182 8.056C46.654 8.176 47.082 8.236 47.466 8.236C47.698 8.236 47.886 8.208 48.03 8.152C48.174 8.096 48.282 8.02 48.354 7.924C48.426 7.828 48.462 7.72 48.462 7.6C48.462 7.448 48.41 7.32 48.306 7.216C48.202 7.112 48.038 7.004 47.814 6.892C47.59 6.78 47.29 6.64 46.914 6.472C46.594 6.328 46.306 6.176 46.05 6.016C45.794 5.856 45.574 5.676 45.39 5.476C45.214 5.276 45.078 5.044 44.982 4.78C44.886 4.508 44.838 4.188 44.838 3.82C44.838 3.268 44.974 2.808 45.246 2.44C45.518 2.064 45.894 1.784 46.374 1.6C46.862 1.408 47.426 1.312 48.066 1.312C48.626 1.312 49.13 1.376 49.578 1.504C50.026 1.624 50.426 1.764 50.778 1.924L50.07 3.712C49.702 3.544 49.338 3.412 48.978 3.316C48.626 3.212 48.298 3.16 47.994 3.16C47.794 3.16 47.63 3.184 47.502 3.232C47.374 3.28 47.278 3.348 47.214 3.436C47.158 3.516 47.13 3.608 47.13 3.712C47.13 3.848 47.182 3.968 47.286 4.072C47.39 4.176 47.562 4.292 47.802 4.42C48.05 4.54 48.386 4.696 48.81 4.888C49.226 5.072 49.578 5.276 49.866 5.5C50.162 5.716 50.386 5.976 50.538 6.28C50.698 6.576 50.778 6.948 50.778 7.396ZM54.2718 4.468C54.2718 4.74 54.2598 5.04 54.2358 5.368C54.2118 5.696 54.1798 5.996 54.1398 6.268H54.1878C54.2518 6.172 54.3238 6.064 54.4038 5.944C54.4838 5.816 54.5678 5.688 54.6558 5.56C54.7438 5.432 54.8238 5.324 54.8958 5.236L56.3838 3.364H58.9398L56.6358 6.184L59.0838 10H56.4678L55.0158 7.624L54.2718 8.188V10H51.9678V0.879999H54.2718V4.468ZM59.0739 3.364H61.4859L62.6139 7.168C62.6299 7.224 62.6459 7.292 62.6619 7.372C62.6779 7.452 62.6899 7.536 62.6979 7.624C62.7139 7.712 62.7219 7.8 62.7219 7.888H62.7699C62.7859 7.728 62.8059 7.592 62.8299 7.48C62.8619 7.36 62.8899 7.26 62.9139 7.18L64.0659 3.364H66.4059L63.7779 10.42C63.5779 10.956 63.3419 11.408 63.0699 11.776C62.8059 12.144 62.4779 12.42 62.0859 12.604C61.6939 12.788 61.2059 12.88 60.6219 12.88C60.4139 12.88 60.2339 12.868 60.0819 12.844C59.9299 12.828 59.7979 12.808 59.6859 12.784V10.984C59.7739 11 59.8779 11.016 59.9979 11.032C60.1259 11.048 60.2579 11.056 60.3939 11.056C60.6499 11.056 60.8539 11.004 61.0059 10.9C61.1659 10.796 61.2979 10.66 61.4019 10.492C61.5059 10.332 61.5939 10.156 61.6659 9.964L61.6899 9.904L59.0739 3.364ZM72.2182 7.096C72.1862 6.944 72.1502 6.776 72.1102 6.592C72.0702 6.4 72.0342 6.208 72.0022 6.016C71.9782 5.824 71.9542 5.648 71.9302 5.488C71.9062 5.328 71.8862 5.204 71.8702 5.116H71.8342C71.8262 5.204 71.8062 5.328 71.7742 5.488C71.7502 5.648 71.7182 5.828 71.6782 6.028C71.6462 6.22 71.6102 6.42 71.5702 6.628C71.5302 6.828 71.4902 7.012 71.4502 7.18L70.7782 10H68.3662L66.5542 3.364H68.8102L69.3502 5.908C69.3902 6.092 69.4302 6.316 69.4702 6.58C69.5102 6.836 69.5462 7.1 69.5782 7.372C69.6182 7.636 69.6422 7.876 69.6502 8.092H69.6862C69.6942 7.932 69.7142 7.748 69.7462 7.54C69.7782 7.332 69.8102 7.124 69.8422 6.916C69.8822 6.708 69.9182 6.524 69.9502 6.364C69.9822 6.204 70.0022 6.096 70.0102 6.04L70.6222 3.364H73.1542L73.7182 6.076C73.7502 6.228 73.7862 6.424 73.8262 6.664C73.8742 6.896 73.9182 7.14 73.9582 7.396C74.0062 7.652 74.0382 7.884 74.0542 8.092H74.0902C74.1062 7.876 74.1302 7.632 74.1622 7.36C74.1942 7.08 74.2302 6.812 74.2702 6.556C74.3102 6.292 74.3502 6.076 74.3902 5.908L74.9782 3.364H77.1862L75.3622 10H72.9142L72.2182 7.096ZM80.428 3.364V10H78.136V3.364H80.428ZM79.288 0.688C79.616 0.688 79.9 0.756 80.14 0.891999C80.388 1.028 80.512 1.3 80.512 1.708C80.512 2.1 80.388 2.368 80.14 2.512C79.9 2.648 79.616 2.716 79.288 2.716C78.952 2.716 78.664 2.648 78.424 2.512C78.192 2.368 78.076 2.1 78.076 1.708C78.076 1.3 78.192 1.028 78.424 0.891999C78.664 0.756 78.952 0.688 79.288 0.688ZM86.1784 3.244C86.8664 3.244 87.4264 3.436 87.8584 3.82C88.2904 4.204 88.5064 4.824 88.5064 5.68V10H86.2144V6.376C86.2144 5.936 86.1504 5.604 86.0224 5.38C85.8944 5.156 85.6904 5.044 85.4104 5.044C84.9784 5.044 84.6864 5.22 84.5344 5.572C84.3904 5.924 84.3184 6.432 84.3184 7.096V10H82.0264V3.364H83.7544L84.0664 4.24H84.1504C84.2944 4.032 84.4624 3.856 84.6544 3.712C84.8544 3.56 85.0784 3.444 85.3264 3.364C85.5824 3.284 85.8664 3.244 86.1784 3.244ZM92.1294 10.12C91.4494 10.12 90.8854 9.828 90.4374 9.244C89.9974 8.66 89.7774 7.808 89.7774 6.688C89.7774 5.552 90.0014 4.696 90.4494 4.12C90.9054 3.536 91.4934 3.244 92.2134 3.244C92.5094 3.244 92.7654 3.288 92.9814 3.376C93.1974 3.456 93.3854 3.572 93.5454 3.724C93.7054 3.868 93.8414 4.032 93.9534 4.216H94.0014C93.9694 4.048 93.9414 3.816 93.9174 3.52C93.9014 3.224 93.8934 2.936 93.8934 2.656V0.879999H96.1974V10H94.4694L93.9774 9.16H93.8934C93.7894 9.336 93.6574 9.496 93.4974 9.64C93.3374 9.784 93.1454 9.9 92.9214 9.988C92.6974 10.076 92.4334 10.12 92.1294 10.12ZM93.0654 8.308C93.4334 8.308 93.6934 8.192 93.8454 7.96C93.9974 7.728 94.0774 7.372 94.0854 6.892V6.712C94.0854 6.192 94.0094 5.792 93.8574 5.512C93.7134 5.232 93.4414 5.092 93.0414 5.092C92.7694 5.092 92.5414 5.224 92.3574 5.488C92.1814 5.752 92.0934 6.164 92.0934 6.724C92.0934 7.276 92.1814 7.68 92.3574 7.936C92.5414 8.184 92.7774 8.308 93.0654 8.308ZM101.352 4.984H105.048V9.604C104.608 9.756 104.1 9.88 103.524 9.976C102.956 10.072 102.36 10.12 101.736 10.12C100.912 10.12 100.188 9.96 99.5644 9.64C98.9484 9.32 98.4644 8.832 98.1124 8.176C97.7684 7.52 97.5964 6.692 97.5964 5.692C97.5964 4.796 97.7684 4.02 98.1124 3.364C98.4564 2.708 98.9604 2.204 99.6244 1.852C100.296 1.492 101.12 1.312 102.096 1.312C102.632 1.312 103.14 1.364 103.62 1.468C104.1 1.564 104.516 1.692 104.868 1.852L104.136 3.664C103.832 3.512 103.512 3.4 103.176 3.328C102.84 3.248 102.484 3.208 102.108 3.208C101.596 3.208 101.184 3.324 100.872 3.556C100.56 3.788 100.332 4.096 100.188 4.48C100.052 4.864 99.9844 5.288 99.9844 5.752C99.9844 6.28 100.06 6.728 100.212 7.096C100.364 7.464 100.584 7.744 100.872 7.936C101.16 8.12 101.512 8.212 101.928 8.212C102.024 8.212 102.132 8.208 102.252 8.2C102.372 8.192 102.488 8.18 102.6 8.164C102.72 8.148 102.812 8.132 102.876 8.116V6.772H101.352V4.984ZM110.667 3.244C110.795 3.244 110.927 3.252 111.063 3.268C111.199 3.284 111.299 3.3 111.363 3.316L111.159 5.476C111.079 5.46 110.979 5.444 110.859 5.428C110.747 5.412 110.587 5.404 110.379 5.404C110.235 5.404 110.079 5.42 109.911 5.452C109.751 5.476 109.595 5.532 109.443 5.62C109.299 5.708 109.179 5.84 109.083 6.016C108.995 6.192 108.951 6.432 108.951 6.736V10H106.659V3.364H108.363L108.723 4.42H108.831C108.951 4.204 109.107 4.008 109.299 3.832C109.491 3.648 109.703 3.504 109.935 3.4C110.175 3.296 110.419 3.244 110.667 3.244ZM118.386 6.664C118.386 7.216 118.31 7.708 118.158 8.14C118.006 8.572 117.786 8.936 117.498 9.232C117.21 9.52 116.862 9.74 116.454 9.892C116.046 10.044 115.582 10.12 115.062 10.12C114.582 10.12 114.138 10.044 113.73 9.892C113.33 9.74 112.982 9.52 112.686 9.232C112.398 8.936 112.17 8.572 112.002 8.14C111.842 7.708 111.762 7.216 111.762 6.664C111.762 5.928 111.894 5.308 112.158 4.804C112.43 4.292 112.814 3.904 113.31 3.64C113.806 3.376 114.402 3.244 115.098 3.244C115.738 3.244 116.302 3.376 116.79 3.64C117.286 3.904 117.674 4.292 117.954 4.804C118.242 5.308 118.386 5.928 118.386 6.664ZM114.09 6.664C114.09 7.04 114.122 7.36 114.186 7.624C114.25 7.888 114.354 8.088 114.498 8.224C114.65 8.352 114.846 8.416 115.086 8.416C115.326 8.416 115.514 8.352 115.65 8.224C115.794 8.088 115.898 7.888 115.962 7.624C116.026 7.36 116.058 7.04 116.058 6.664C116.058 6.288 116.026 5.972 115.962 5.716C115.898 5.46 115.794 5.268 115.65 5.14C115.506 5.012 115.314 4.948 115.074 4.948C114.73 4.948 114.478 5.092 114.318 5.38C114.166 5.668 114.09 6.096 114.09 6.664ZM126.146 3.364V10H124.418L124.13 9.172H123.998C123.862 9.396 123.686 9.58 123.47 9.724C123.262 9.86 123.03 9.96 122.774 10.024C122.526 10.088 122.266 10.12 121.994 10.12C121.562 10.12 121.17 10.036 120.818 9.868C120.466 9.7 120.186 9.436 119.978 9.076C119.778 8.716 119.678 8.252 119.678 7.684V3.364H121.97V6.988C121.97 7.42 122.03 7.748 122.15 7.972C122.278 8.196 122.482 8.308 122.762 8.308C123.05 8.308 123.274 8.232 123.434 8.08C123.594 7.92 123.702 7.688 123.758 7.384C123.822 7.08 123.854 6.708 123.854 6.268V3.364H126.146ZM131.786 3.244C132.522 3.244 133.098 3.54 133.514 4.132C133.93 4.716 134.138 5.56 134.138 6.664C134.138 7.416 134.03 8.052 133.814 8.572C133.606 9.084 133.318 9.472 132.95 9.736C132.59 9.992 132.178 10.12 131.714 10.12C131.402 10.12 131.138 10.08 130.922 10C130.706 9.92 130.526 9.824 130.382 9.712C130.238 9.592 130.118 9.472 130.021 9.352H129.95C129.966 9.504 129.982 9.668 129.998 9.844C130.014 10.02 130.021 10.224 130.021 10.456V12.88H127.729V3.364H129.59L129.914 4.204H130.021C130.134 4.028 130.266 3.868 130.418 3.724C130.578 3.58 130.77 3.464 130.994 3.376C131.218 3.288 131.482 3.244 131.786 3.244ZM130.922 5.044C130.698 5.044 130.522 5.1 130.394 5.212C130.266 5.316 130.174 5.472 130.118 5.68C130.062 5.888 130.03 6.152 130.021 6.472V6.652C130.021 7.004 130.046 7.3 130.094 7.54C130.15 7.78 130.246 7.964 130.382 8.092C130.518 8.212 130.702 8.272 130.934 8.272C131.126 8.272 131.286 8.22 131.414 8.116C131.55 8.004 131.65 7.828 131.714 7.588C131.778 7.348 131.81 7.032 131.81 6.64C131.81 6.056 131.734 5.644 131.582 5.404C131.43 5.164 131.21 5.044 130.922 5.044ZM141.726 1.324C142.27 1.324 142.734 1.404 143.118 1.564C143.51 1.724 143.81 1.956 144.018 2.26C144.234 2.564 144.342 2.932 144.342 3.364C144.342 3.86 144.198 4.288 143.91 4.648C143.622 5.008 143.25 5.328 142.794 5.608L143.958 6.712C144.094 6.504 144.214 6.272 144.318 6.016C144.43 5.752 144.514 5.476 144.57 5.188H146.946C146.818 5.772 146.626 6.332 146.37 6.868C146.114 7.404 145.838 7.848 145.542 8.2L147.414 10H144.45L143.874 9.4C143.714 9.504 143.554 9.6 143.394 9.688C143.242 9.776 143.07 9.852 142.878 9.916C142.686 9.98 142.462 10.028 142.206 10.06C141.958 10.1 141.654 10.12 141.294 10.12C140.63 10.12 140.066 10.008 139.602 9.784C139.138 9.56 138.786 9.26 138.546 8.884C138.306 8.5 138.186 8.08 138.186 7.624C138.186 7.28 138.246 6.964 138.366 6.676C138.494 6.388 138.674 6.128 138.906 5.896C139.146 5.656 139.438 5.448 139.782 5.272C139.622 5.088 139.482 4.9 139.362 4.708C139.25 4.508 139.162 4.3 139.098 4.084C139.042 3.86 139.014 3.62 139.014 3.364C139.014 2.964 139.114 2.612 139.314 2.308C139.522 2.004 139.826 1.764 140.226 1.588C140.634 1.412 141.134 1.324 141.726 1.324ZM141.03 6.532C140.918 6.612 140.826 6.704 140.754 6.808C140.682 6.904 140.63 7.008 140.598 7.12C140.566 7.224 140.55 7.336 140.55 7.456C140.55 7.704 140.638 7.908 140.814 8.068C140.99 8.22 141.222 8.296 141.51 8.296C141.734 8.296 141.93 8.268 142.098 8.212C142.266 8.148 142.394 8.08 142.482 8.008L141.03 6.532ZM141.69 2.824C141.53 2.824 141.386 2.872 141.258 2.968C141.138 3.064 141.078 3.22 141.078 3.436C141.078 3.612 141.13 3.776 141.234 3.928C141.338 4.08 141.458 4.22 141.594 4.348C141.818 4.22 141.986 4.068 142.098 3.892C142.218 3.716 142.278 3.54 142.278 3.364C142.278 3.172 142.222 3.036 142.11 2.956C141.998 2.868 141.858 2.824 141.69 2.824ZM155.173 10H152.857V3.328H150.769V1.432H157.261V3.328H155.173V10ZM160.643 2.176C160.643 2.664 160.631 3.076 160.607 3.412C160.583 3.748 160.563 4.004 160.547 4.18H160.655C160.799 3.948 160.959 3.764 161.135 3.628C161.319 3.492 161.523 3.396 161.747 3.34C161.971 3.276 162.215 3.244 162.479 3.244C162.919 3.244 163.315 3.328 163.667 3.496C164.019 3.664 164.299 3.928 164.507 4.288C164.723 4.64 164.831 5.104 164.831 5.68V10H162.527V6.376C162.527 5.936 162.463 5.604 162.335 5.38C162.207 5.156 162.007 5.044 161.735 5.044C161.463 5.044 161.247 5.124 161.087 5.284C160.927 5.444 160.811 5.676 160.739 5.98C160.675 6.276 160.643 6.644 160.643 7.084V10H158.351V0.879999H160.643V2.176ZM169.378 3.244C170.026 3.244 170.582 3.356 171.046 3.58C171.518 3.804 171.878 4.14 172.126 4.588C172.382 5.036 172.51 5.6 172.51 6.28V7.3H168.418C168.434 7.644 168.562 7.928 168.802 8.152C169.05 8.376 169.406 8.488 169.87 8.488C170.286 8.488 170.666 8.448 171.01 8.368C171.354 8.288 171.71 8.16 172.078 7.984V9.628C171.758 9.796 171.406 9.92 171.022 10C170.646 10.08 170.17 10.12 169.594 10.12C168.922 10.12 168.322 10.004 167.794 9.772C167.274 9.532 166.862 9.16 166.558 8.656C166.254 8.152 166.102 7.508 166.102 6.724C166.102 5.924 166.238 5.268 166.51 4.756C166.79 4.244 167.174 3.864 167.662 3.616C168.158 3.368 168.73 3.244 169.378 3.244ZM169.462 4.804C169.19 4.804 168.962 4.888 168.778 5.056C168.602 5.224 168.498 5.492 168.466 5.86H170.434C170.434 5.66 170.394 5.484 170.314 5.332C170.242 5.172 170.134 5.044 169.99 4.948C169.846 4.852 169.67 4.804 169.462 4.804ZM177.756 3.208C177.484 3.208 177.24 3.268 177.024 3.388C176.808 3.5 176.624 3.668 176.472 3.892C176.32 4.108 176.204 4.372 176.124 4.684C176.044 4.996 176.004 5.352 176.004 5.752C176.004 6.288 176.072 6.74 176.208 7.108C176.344 7.476 176.552 7.756 176.832 7.948C177.112 8.132 177.464 8.224 177.888 8.224C178.264 8.224 178.628 8.172 178.98 8.068C179.34 7.964 179.7 7.836 180.06 7.684V9.64C179.684 9.808 179.296 9.928 178.896 10C178.504 10.08 178.084 10.12 177.636 10.12C176.708 10.12 175.948 9.936 175.356 9.568C174.764 9.2 174.328 8.688 174.048 8.032C173.768 7.368 173.628 6.604 173.628 5.74C173.628 5.092 173.716 4.5 173.892 3.964C174.076 3.42 174.344 2.952 174.696 2.56C175.048 2.16 175.48 1.852 175.992 1.636C176.512 1.42 177.108 1.312 177.78 1.312C178.196 1.312 178.632 1.36 179.088 1.456C179.544 1.552 179.992 1.704 180.432 1.912L179.724 3.736C179.412 3.584 179.096 3.46 178.776 3.364C178.456 3.26 178.116 3.208 177.756 3.208ZM187.937 6.664C187.937 7.216 187.861 7.708 187.709 8.14C187.557 8.572 187.337 8.936 187.049 9.232C186.761 9.52 186.413 9.74 186.005 9.892C185.597 10.044 185.133 10.12 184.613 10.12C184.133 10.12 183.689 10.044 183.281 9.892C182.881 9.74 182.533 9.52 182.237 9.232C181.949 8.936 181.721 8.572 181.553 8.14C181.393 7.708 181.313 7.216 181.313 6.664C181.313 5.928 181.445 5.308 181.709 4.804C181.981 4.292 182.365 3.904 182.861 3.64C183.357 3.376 183.953 3.244 184.649 3.244C185.289 3.244 185.853 3.376 186.341 3.64C186.837 3.904 187.225 4.292 187.505 4.804C187.793 5.308 187.937 5.928 187.937 6.664ZM183.641 6.664C183.641 7.04 183.673 7.36 183.737 7.624C183.801 7.888 183.905 8.088 184.049 8.224C184.201 8.352 184.397 8.416 184.637 8.416C184.877 8.416 185.065 8.352 185.201 8.224C185.345 8.088 185.449 7.888 185.513 7.624C185.577 7.36 185.609 7.04 185.609 6.664C185.609 6.288 185.577 5.972 185.513 5.716C185.449 5.46 185.345 5.268 185.201 5.14C185.057 5.012 184.865 4.948 184.625 4.948C184.281 4.948 184.029 5.092 183.869 5.38C183.717 5.668 183.641 6.096 183.641 6.664ZM192.265 10.12C191.593 10.12 191.009 10 190.513 9.76C190.017 9.52 189.633 9.148 189.361 8.644C189.089 8.14 188.953 7.496 188.953 6.712C188.953 5.904 189.105 5.248 189.409 4.744C189.713 4.232 190.125 3.856 190.645 3.616C191.173 3.368 191.773 3.244 192.445 3.244C192.853 3.244 193.237 3.288 193.597 3.376C193.965 3.464 194.305 3.588 194.617 3.748L193.945 5.44C193.673 5.32 193.417 5.224 193.177 5.152C192.945 5.08 192.701 5.044 192.445 5.044C192.213 5.044 192.009 5.104 191.833 5.224C191.657 5.344 191.521 5.528 191.425 5.776C191.329 6.016 191.281 6.324 191.281 6.7C191.281 7.084 191.329 7.392 191.425 7.624C191.529 7.856 191.669 8.028 191.845 8.14C192.021 8.244 192.225 8.296 192.457 8.296C192.785 8.296 193.113 8.244 193.441 8.14C193.777 8.036 194.093 7.892 194.389 7.708V9.532C194.117 9.708 193.809 9.852 193.465 9.964C193.121 10.068 192.721 10.12 192.265 10.12ZM198.014 4.468C198.014 4.74 198.002 5.04 197.978 5.368C197.954 5.696 197.922 5.996 197.882 6.268H197.93C197.994 6.172 198.066 6.064 198.146 5.944C198.226 5.816 198.31 5.688 198.398 5.56C198.486 5.432 198.566 5.324 198.638 5.236L200.126 3.364H202.682L200.378 6.184L202.826 10H200.21L198.758 7.624L198.014 8.188V10H195.71V0.879999H198.014V4.468ZM206.872 8.308C207.08 8.308 207.268 8.288 207.436 8.248C207.612 8.2 207.792 8.144 207.976 8.08V9.748C207.728 9.852 207.464 9.94 207.184 10.012C206.904 10.084 206.548 10.12 206.116 10.12C205.684 10.12 205.304 10.052 204.976 9.916C204.656 9.78 204.404 9.548 204.22 9.22C204.036 8.884 203.944 8.416 203.944 7.816V5.08H203.14V4.144L204.16 3.424L204.748 2.032H206.248V3.364H207.88V5.08H206.248V7.66C206.248 7.876 206.3 8.04 206.404 8.152C206.516 8.256 206.672 8.308 206.872 8.308ZM212.38 3.244C213.22 3.244 213.876 3.452 214.348 3.868C214.82 4.284 215.056 4.876 215.056 5.644V10H213.472L213.028 9.124H212.98C212.796 9.356 212.604 9.548 212.404 9.7C212.212 9.844 211.988 9.948 211.732 10.012C211.476 10.084 211.164 10.12 210.796 10.12C210.412 10.12 210.068 10.044 209.764 9.892C209.46 9.732 209.22 9.496 209.044 9.184C208.868 8.864 208.78 8.46 208.78 7.972C208.78 7.26 209.024 6.732 209.512 6.388C210.008 6.044 210.724 5.852 211.66 5.812L212.764 5.776V5.68C212.764 5.384 212.692 5.176 212.548 5.056C212.404 4.928 212.208 4.864 211.96 4.864C211.696 4.864 211.404 4.912 211.084 5.008C210.764 5.096 210.44 5.212 210.112 5.356L209.452 3.844C209.836 3.644 210.268 3.496 210.748 3.4C211.236 3.296 211.78 3.244 212.38 3.244ZM212.248 7.06C211.832 7.076 211.536 7.152 211.36 7.288C211.192 7.416 211.108 7.6 211.108 7.84C211.108 8.064 211.168 8.232 211.288 8.344C211.408 8.448 211.568 8.5 211.768 8.5C212.048 8.5 212.284 8.412 212.476 8.236C212.676 8.06 212.776 7.832 212.776 7.552V7.036L212.248 7.06ZM218.92 3.364V10H216.628V3.364H218.92ZM217.78 0.688C218.108 0.688 218.392 0.756 218.632 0.891999C218.88 1.028 219.004 1.3 219.004 1.708C219.004 2.1 218.88 2.368 218.632 2.512C218.392 2.648 218.108 2.716 217.78 2.716C217.444 2.716 217.156 2.648 216.916 2.512C216.684 2.368 216.568 2.1 216.568 1.708C216.568 1.3 216.684 1.028 216.916 0.891999C217.156 0.756 217.444 0.688 217.78 0.688ZM222.811 10H220.519V0.879999H222.811V10ZM231.801 5.536C231.801 6.528 231.613 7.356 231.237 8.02C230.869 8.684 230.349 9.18 229.677 9.508C229.005 9.836 228.213 10 227.301 10H224.529V1.432H227.493C228.413 1.432 229.193 1.592 229.833 1.912C230.473 2.224 230.961 2.684 231.297 3.292C231.633 3.9 231.801 4.648 231.801 5.536ZM229.401 5.62C229.401 5.1 229.329 4.668 229.185 4.324C229.049 3.98 228.841 3.724 228.561 3.556C228.289 3.388 227.941 3.304 227.517 3.304H226.845V8.104H227.361C228.065 8.104 228.581 7.9 228.909 7.492C229.237 7.084 229.401 6.46 229.401 5.62ZM236.33 1.432C237.154 1.432 237.818 1.516 238.322 1.684C238.826 1.844 239.194 2.084 239.426 2.404C239.658 2.716 239.774 3.104 239.774 3.568C239.774 3.944 239.706 4.264 239.57 4.528C239.434 4.784 239.262 4.988 239.054 5.14C238.854 5.292 238.646 5.396 238.43 5.452V5.512C238.662 5.568 238.894 5.664 239.126 5.8C239.358 5.936 239.55 6.14 239.702 6.412C239.862 6.676 239.942 7.036 239.942 7.492C239.942 8.012 239.81 8.46 239.546 8.836C239.282 9.212 238.906 9.5 238.418 9.7C237.93 9.9 237.35 10 236.678 10H233.342V1.432H236.33ZM236.354 4.72C236.738 4.72 237.006 4.64 237.158 4.48C237.318 4.32 237.398 4.128 237.398 3.904C237.398 3.672 237.31 3.496 237.134 3.376C236.958 3.248 236.682 3.184 236.306 3.184H235.658V4.72H236.354ZM235.658 6.412V8.212H236.474C236.874 8.212 237.154 8.128 237.314 7.96C237.474 7.784 237.554 7.564 237.554 7.3C237.554 7.148 237.518 7.004 237.446 6.868C237.382 6.732 237.266 6.624 237.098 6.544C236.938 6.456 236.714 6.412 236.426 6.412H235.658Z" fill="#DCACAA"/>
</svg>
