<svg viewBox="0 0 26 26" fill="none" xmlns="http://www.w3.org/2000/svg">
<g clip-path="url(#clip0_1_47)">
<path d="M11.6518 1.56C6.36006 1.56 2.08 5.74195 2.08 10.9124C2.08 16.0829 6.36006 20.2649 11.6518 20.2649C13.5411 20.2649 15.2897 19.7233 16.7721 18.8036L23.687 25.56L26.08 23.2219L19.253 16.5686C20.4803 14.9955 21.2237 13.0464 21.2237 10.9124C21.2237 5.74195 16.9436 1.56 11.6518 1.56ZM11.6518 3.76057C15.7054 3.76057 18.9715 6.95183 18.9715 10.9124C18.9715 14.873 15.7054 18.0643 11.6518 18.0643C7.59833 18.0643 4.3322 14.873 4.3322 10.9124C4.3322 6.95183 7.59833 3.76057 11.6518 3.76057Z" fill="#C98686"/>
</g>
<defs>
<clipPath id="clip0_1_47">
<rect width="26" height="26" fill="white"/>
</clipPath>
</defs>
</svg>
