<svg width="180" height="218" viewBox="0 0 180 218" fill="none" xmlns="http://www.w3.org/2000/svg">
<path d="M114.581 122.55L178.206 38.6058H126.538L131.779 27.1093C134.351 21.4629 139.067 17.0729 144.881 14.9115L163.993 7.79977L161.09 0L141.981 7.11176C134.094 10.0473 127.7 16.0031 124.206 23.6591L117.392 38.6058H33.8868L97.5087 122.55V161.059L71.0033 180H141.089L114.581 161.059V122.55ZM72.6388 66.5385H139.451L106.045 110.61L72.6388 66.5385Z" fill="#C98686"/>
<path d="M23.5304 54.3214C25.6454 55.1936 27.7552 55.1447 27.7552 55.1447C28.3373 55.1447 28.8763 55.1096 29.3098 54.752C29.7404 54.3973 29.9921 53.8636 29.9921 53.3004V39.8486L29.7025 39.4151L29.1906 39.5185L19.6791 49.0296C19.2811 49.428 19.0807 49.9803 19.1348 50.5357C19.1918 51.0965 19.5061 51.4864 19.9582 51.9142C19.9582 51.9142 21.4154 53.4389 23.5304 54.3214Z" fill="#C98686"/>
<path d="M45.0366 18.9225C44.9824 18.3618 44.6681 17.9719 44.216 17.5465C44.216 17.5465 42.7588 16.019 40.6438 15.1415C38.5288 14.264 36.4191 14.3156 36.4191 14.3156C35.8341 14.3156 35.2979 14.3533 34.8673 14.7083C34.4338 15.0659 34.1821 15.5967 34.1821 16.1599V29.6118L34.4718 30.0424L34.9808 29.9419L44.4948 20.4279C44.8907 20.0327 45.0879 19.4776 45.0366 18.9225Z" fill="#C98686"/>
<path d="M12.497 42.8688C13.3745 44.9838 14.902 46.4407 14.902 46.4407C15.3137 46.8524 15.7198 47.2043 16.278 47.2612C16.8356 47.3157 17.3911 47.115 17.7862 46.7198L27.3002 37.2059L27.4004 36.694L26.9673 36.4071H13.5155C12.9523 36.4071 12.421 36.656 12.0663 37.0898C11.7088 37.523 11.6546 38.0215 11.6708 38.6469C11.6708 38.6469 11.6227 40.7535 12.497 42.8688Z" fill="#C98686"/>
<path d="M50.6587 33.3868C51.2195 33.3868 51.7504 33.1379 52.1079 32.7045C52.4626 32.2713 52.5196 31.7728 52.5006 31.1527C52.5006 31.1527 52.5519 29.0433 51.6744 26.9279C50.7997 24.8101 49.2722 23.3557 49.2722 23.3557C48.8577 22.9416 48.4545 22.5868 47.8962 22.5352C47.3386 22.481 46.7831 22.6789 46.388 23.0745L36.874 32.5884L36.7738 33.0975L37.2069 33.3872L50.6587 33.3868Z" fill="#C98686"/>
<path d="M12.0667 32.7045C12.4214 33.1379 12.9526 33.3869 13.5158 33.3869H26.9677L27.4008 33.0972L27.3006 32.5881L17.7862 23.0741C17.3907 22.6758 16.8356 22.4807 16.278 22.5348C15.7201 22.5865 15.333 22.9033 14.902 23.3554C14.902 23.3554 13.3745 24.8098 12.497 26.9276C11.6223 29.0426 11.6708 31.1499 11.6708 31.1499C11.6712 31.7377 11.7091 32.2713 12.0667 32.7045Z" fill="#C98686"/>
<path d="M29.9925 16.1599C29.9925 15.5967 29.7408 15.0658 29.3101 14.7083C28.8766 14.3508 28.3785 14.2991 27.7555 14.3156C27.7555 14.3156 25.6461 14.2639 23.5308 15.1414C21.4154 16.0189 19.9586 17.5436 19.9586 17.5436C19.5444 17.9578 19.1921 18.3614 19.1352 18.9193C19.0811 19.4772 19.2814 20.0324 19.6794 20.4279L29.1906 29.939L29.7025 30.0424L29.9921 29.6089L29.9925 16.1599Z" fill="#C98686"/>
<path d="M57.0611 34.7301H62.3802C62.3802 27.7323 59.9994 21.2811 55.9944 16.149C54.4532 14.1613 52.6525 12.3739 50.6644 10.8165C45.5351 6.82206 39.0811 4.44409 32.0804 4.44409C15.384 4.44409 1.79402 18.026 1.79402 34.7301C1.79402 40.2279 3.26988 45.3951 5.84297 49.8421C8.50781 54.4514 12.3616 58.3056 16.9734 60.9732C21.4179 63.5431 26.5823 65.0165 32.0773 65.0194V59.703C18.2869 59.7002 7.11 48.5205 7.11 34.7301C7.11 20.9398 18.2921 9.75761 32.0854 9.75761C45.8817 9.75761 57.0611 20.9398 57.0611 34.7301Z" fill="#C98686"/>
<path d="M43.1589 213H39.1109L34.9349 204.952H34.8709C34.8922 205.133 34.9082 205.347 34.9189 205.592C34.9402 205.837 34.9562 206.093 34.9669 206.36C34.9775 206.627 34.9882 206.888 34.9989 207.144C35.0095 207.4 35.0149 207.635 35.0149 207.848V213H32.2789V201.576H36.3109L40.4709 209.512H40.5189C40.5082 209.331 40.4922 209.123 40.4709 208.888C40.4602 208.643 40.4495 208.397 40.4389 208.152C40.4282 207.896 40.4175 207.645 40.4069 207.4C40.4069 207.155 40.4069 206.936 40.4069 206.744V201.576H43.1589V213ZM56.3106 207.272C56.3106 208.157 56.204 208.963 55.9906 209.688C55.7773 210.403 55.4466 211.021 54.9986 211.544C54.5506 212.067 53.9746 212.467 53.2706 212.744C52.5773 213.021 51.74 213.16 50.7586 213.16C49.7986 213.16 48.9666 213.021 48.2626 212.744C47.5693 212.467 46.9933 212.067 46.5346 211.544C46.0866 211.021 45.7506 210.403 45.5266 209.688C45.3133 208.963 45.2066 208.152 45.2066 207.256C45.2066 206.072 45.404 205.043 45.7986 204.168C46.1933 203.283 46.8013 202.6 47.6226 202.12C48.444 201.64 49.4946 201.4 50.7746 201.4C52.076 201.4 53.132 201.645 53.9426 202.136C54.764 202.616 55.3613 203.299 55.7346 204.184C56.1186 205.059 56.3106 206.088 56.3106 207.272ZM48.4546 207.272C48.4546 207.955 48.5293 208.547 48.6786 209.048C48.8386 209.539 49.0893 209.917 49.4306 210.184C49.772 210.451 50.2146 210.584 50.7586 210.584C51.324 210.584 51.772 210.451 52.1026 210.184C52.444 209.917 52.6893 209.539 52.8386 209.048C52.988 208.547 53.0626 207.955 53.0626 207.272C53.0626 206.237 52.892 205.421 52.5506 204.824C52.2093 204.227 51.6173 203.928 50.7746 203.928C50.22 203.928 49.772 204.067 49.4306 204.344C49.0893 204.611 48.8386 204.995 48.6786 205.496C48.5293 205.987 48.4546 206.579 48.4546 207.272ZM66.2729 201.576C67.3075 201.576 68.1662 201.704 68.8489 201.96C69.5422 202.216 70.0595 202.595 70.4009 203.096C70.7529 203.587 70.9289 204.205 70.9289 204.952C70.9289 205.411 70.8489 205.832 70.6889 206.216C70.5395 206.6 70.3209 206.941 70.0329 207.24C69.7449 207.539 69.3982 207.8 68.9929 208.024L72.3209 213H68.8169L66.4009 208.84H65.6169V213H62.5289V201.576H66.2729ZM66.2249 203.912H65.6169V206.52H66.1929C66.5129 206.52 66.7902 206.477 67.0249 206.392C67.2702 206.296 67.4622 206.147 67.6009 205.944C67.7395 205.731 67.8089 205.448 67.8089 205.096C67.8089 204.851 67.7555 204.643 67.6489 204.472C67.5422 204.291 67.3715 204.152 67.1369 204.056C66.9022 203.96 66.5982 203.912 66.2249 203.912ZM80.141 213H73.357V201.576H80.141V204.056H76.445V205.848H79.869V208.328H76.445V210.488H80.141V213ZM89.6103 209.528C89.6103 210.147 89.4503 210.733 89.1302 211.288C88.8209 211.843 88.3356 212.296 87.6743 212.648C87.0236 212.989 86.1756 213.16 85.1302 213.16C84.6076 213.16 84.1489 213.133 83.7543 213.08C83.3703 213.037 83.0076 212.963 82.6663 212.856C82.3249 212.749 81.9729 212.611 81.6103 212.44V209.688C82.2289 209.997 82.8529 210.237 83.4823 210.408C84.1116 210.568 84.6823 210.648 85.1943 210.648C85.5036 210.648 85.7543 210.611 85.9463 210.536C86.1383 210.461 86.2823 210.36 86.3783 210.232C86.4743 210.104 86.5223 209.96 86.5223 209.8C86.5223 209.597 86.4529 209.427 86.3143 209.288C86.1756 209.149 85.9569 209.005 85.6583 208.856C85.3596 208.707 84.9596 208.52 84.4583 208.296C84.0316 208.104 83.6476 207.901 83.3063 207.688C82.9649 207.475 82.6716 207.235 82.4263 206.968C82.1916 206.701 82.0103 206.392 81.8823 206.04C81.7543 205.677 81.6903 205.251 81.6903 204.76C81.6903 204.024 81.8716 203.411 82.2343 202.92C82.5969 202.419 83.0983 202.045 83.7383 201.8C84.3889 201.544 85.1409 201.416 85.9943 201.416C86.7409 201.416 87.4129 201.501 88.0103 201.672C88.6076 201.832 89.1409 202.019 89.6103 202.232L88.6663 204.616C88.1756 204.392 87.6903 204.216 87.2103 204.088C86.7409 203.949 86.3036 203.88 85.8983 203.88C85.6316 203.88 85.4129 203.912 85.2423 203.976C85.0716 204.04 84.9436 204.131 84.8583 204.248C84.7836 204.355 84.7463 204.477 84.7463 204.616C84.7463 204.797 84.8156 204.957 84.9543 205.096C85.0929 205.235 85.3223 205.389 85.6423 205.56C85.9729 205.72 86.4209 205.928 86.9863 206.184C87.5409 206.429 88.0103 206.701 88.3943 207C88.7889 207.288 89.0876 207.635 89.2903 208.04C89.5036 208.435 89.6103 208.931 89.6103 209.528ZM101.085 208.456C101.085 209.416 100.903 210.248 100.541 210.952C100.178 211.656 99.6286 212.2 98.8926 212.584C98.1673 212.968 97.2553 213.16 96.1566 213.16C94.578 213.16 93.3726 212.76 92.5406 211.96C91.7193 211.149 91.3086 210.003 91.3086 208.52V201.576H94.4126V208.28C94.4126 209.091 94.562 209.677 94.8606 210.04C95.17 210.403 95.618 210.584 96.2046 210.584C96.6313 210.584 96.9726 210.504 97.2286 210.344C97.4953 210.184 97.6873 209.933 97.8046 209.592C97.9326 209.251 97.9966 208.808 97.9966 208.264V201.576H101.085V208.456ZM103.482 213V201.576H106.57V210.504H110.97V213H103.482ZM117.522 213H114.434V204.104H111.65V201.576H120.306V204.104H117.522V213ZM129.407 209.528C129.407 210.147 129.247 210.733 128.927 211.288C128.618 211.843 128.132 212.296 127.471 212.648C126.82 212.989 125.972 213.16 124.927 213.16C124.404 213.16 123.946 213.133 123.551 213.08C123.167 213.037 122.804 212.963 122.463 212.856C122.122 212.749 121.77 212.611 121.407 212.44V209.688C122.026 209.997 122.65 210.237 123.279 210.408C123.908 210.568 124.479 210.648 124.991 210.648C125.3 210.648 125.551 210.611 125.743 210.536C125.935 210.461 126.079 210.36 126.175 210.232C126.271 210.104 126.319 209.96 126.319 209.8C126.319 209.597 126.25 209.427 126.111 209.288C125.972 209.149 125.754 209.005 125.455 208.856C125.156 208.707 124.756 208.52 124.255 208.296C123.828 208.104 123.444 207.901 123.103 207.688C122.762 207.475 122.468 207.235 122.223 206.968C121.988 206.701 121.807 206.392 121.679 206.04C121.551 205.677 121.487 205.251 121.487 204.76C121.487 204.024 121.668 203.411 122.031 202.92C122.394 202.419 122.895 202.045 123.535 201.8C124.186 201.544 124.938 201.416 125.791 201.416C126.538 201.416 127.21 201.501 127.807 201.672C128.404 201.832 128.938 202.019 129.407 202.232L128.463 204.616C127.972 204.392 127.487 204.216 127.007 204.088C126.538 203.949 126.1 203.88 125.695 203.88C125.428 203.88 125.21 203.912 125.039 203.976C124.868 204.04 124.74 204.131 124.655 204.248C124.58 204.355 124.543 204.477 124.543 204.616C124.543 204.797 124.612 204.957 124.751 205.096C124.89 205.235 125.119 205.389 125.439 205.56C125.77 205.72 126.218 205.928 126.783 206.184C127.338 206.429 127.807 206.701 128.191 207C128.586 207.288 128.884 207.635 129.087 208.04C129.3 208.435 129.407 208.931 129.407 209.528ZM139.406 205.816L141.374 201.576H144.718L140.958 208.536V213H137.854V208.632L134.094 201.576H137.454L139.406 205.816ZM152.735 213H145.951V201.576H152.735V204.056H149.039V205.848H152.463V208.328H149.039V210.488H152.735V213ZM159.772 213H156.684V204.104H153.9V201.576H162.556V204.104H159.772V213Z" fill="#C98686"/>
</svg>
